<svg xmlns="http://www.w3.org/2000/svg" width="1540" height="867.753" viewBox="0 0 1540 867.753">
  <defs>
    <style>
      .cls-1, .cls-2, .cls-3, .cls-4 {
        fill: #fff;
        font-family: Sensei-Medium, Sensei;
        font-weight: 500;
      }

      .cls-1 {
        font-size: 134px;
      }

      .cls-2 {
        font-size: 100px;
      }

      .cls-3 {
        font-size: 47px;
      }

      .cls-4 {
        font-size: 52px;
      }

      .cls-5 {
        fill: #315850;
      }

      .cls-6 {
        fill: #417e6e;
      }

      .cls-7 {
        fill: #54ab95;
      }

      .cls-8 {
        fill: #9dd0c6;
      }
    </style>
  </defs>
  <g id="Grupo_30" data-name="Grupo 30" transform="translate(-191 -1205)">
    <text id="_4_2_millones" data-name="4,2 millones" class="cls-1" transform="translate(191 1332)"><tspan x="0" y="0">4,2 millones</tspan></text>
    <text id="_88_" data-name="88%" class="cls-1" transform="translate(771 1715)"><tspan x="0" y="0">88%</tspan></text>
    <text id="contaminación_del_aire_en_el_2016" data-name="contaminación del aire 
en el 2016" class="cls-2" transform="translate(191 1524)"><tspan x="0" y="0">contaminación del aire </tspan><tspan x="0" y="120">en el 2016</tspan></text>
    <text id="países_de_ingresos_bajos_y_medios" data-name="países de ingresos
bajos y medios" class="cls-2" transform="translate(948 1871)"><tspan x="0" y="0">países de ingresos</tspan><tspan x="0" y="120">bajos y medios</tspan></text>
    <text id="de_muertes_prematuras_fueron_atribuibles_a_la" data-name="de muertes prematuras fueron atribuibles a la" class="cls-3" transform="translate(191 1412)"><tspan x="0" y="0">de muertes prematuras fueron atribuibles a la</tspan></text>
    <text id="de_estas_muertes_ocurren_en_" data-name="de estas muertes ocurren en " class="cls-3" transform="translate(907 1769)"><tspan x="0" y="0">de estas muertes ocurren en </tspan></text>
    <text id="El" class="cls-4" transform="translate(717 1658)"><tspan x="0" y="0">El</tspan></text>
    <g id="Grupo_1" data-name="Grupo 1" transform="translate(623.039 1598.425)">
      <g id="Grupo_4" data-name="Grupo 4" transform="translate(9.99 182.575)">
        <g id="Grupo_3" data-name="Grupo 3" transform="translate(0)">
          <g id="Grupo_1-2" data-name="Grupo 1" transform="translate(3.787)">
            <circle id="Elipse_1" data-name="Elipse 1" class="cls-5" cx="19.948" cy="19.948" r="19.948"/>
          </g>
          <g id="Grupo_2" data-name="Grupo 2" transform="translate(0 43.576)">
            <path id="Trazado_1" data-name="Trazado 1" class="cls-5" d="M-74.9,309.737c11.856,0,11.867-14.707,11.867-14.707,2.84-24.413,6.868-27.06,6.868-27.06,4.411-5.589,5-16.472,5-16.472V223.85c-.3-13.237-23.735-14.12-23.735-14.12s-23.442.883-23.735,14.12V251.5s.589,10.883,5,16.472c0,0,4.028,2.648,6.868,27.06,0,0,.011,14.707,11.867,14.707" transform="translate(98.635 -209.73)"/>
          </g>
        </g>
      </g>
      <g id="Grupo_8" data-name="Grupo 8" transform="translate(-82.229 182.575)">
        <g id="Grupo_7" data-name="Grupo 7">
          <g id="Grupo_5" data-name="Grupo 5" transform="translate(3.787)">
            <circle id="Elipse_2" data-name="Elipse 2" class="cls-5" cx="19.948" cy="19.948" r="19.948"/>
          </g>
          <g id="Grupo_6" data-name="Grupo 6" transform="translate(0 43.576)">
            <path id="Trazado_2" data-name="Trazado 2" class="cls-5" d="M-132.368,309.737c11.856,0,11.867-14.707,11.867-14.707,2.84-24.413,6.868-27.06,6.868-27.06,4.411-5.589,5-16.472,5-16.472V223.85c-.3-13.237-23.735-14.12-23.735-14.12s-23.442.883-23.735,14.12V251.5s.589,10.883,5,16.472c0,0,4.028,2.648,6.868,27.06,0,0,.011,14.707,11.867,14.707" transform="translate(156.103 -209.73)"/>
          </g>
        </g>
      </g>
      <g id="Grupo_12" data-name="Grupo 12" transform="translate(-132.465 212.395)">
        <g id="Grupo_11" data-name="Grupo 11" transform="translate(0 0)">
          <g id="Grupo_9" data-name="Grupo 9" transform="translate(4.467)">
            <circle id="Elipse_3" data-name="Elipse 3" class="cls-6" cx="23.531" cy="23.531" r="23.531"/>
          </g>
          <g id="Grupo_10" data-name="Grupo 10" transform="translate(0 51.402)">
            <path id="Trazado_3" data-name="Trazado 3" class="cls-6" d="M-159.411,351.156c13.985,0,14-17.347,14-17.347,3.349-28.8,8.1-31.921,8.1-31.921,5.2-6.592,5.9-19.43,5.9-19.43V249.845c-.347-15.614-28-16.655-28-16.655s-27.651,1.042-28,16.655v32.613s.693,12.838,5.9,19.43c0,0,4.752,3.123,8.1,31.921,0,0,.014,17.347,14,17.347" transform="translate(187.408 -233.19)"/>
          </g>
        </g>
      </g>
      <g id="Grupo_16" data-name="Grupo 16" transform="translate(-25.393 212.395)">
        <g id="Grupo_15" data-name="Grupo 15" transform="translate(0 0)">
          <g id="Grupo_13" data-name="Grupo 13" transform="translate(4.467)">
            <circle id="Elipse_4" data-name="Elipse 4" class="cls-6" cx="23.531" cy="23.531" r="23.531"/>
          </g>
          <g id="Grupo_14" data-name="Grupo 14" transform="translate(0 51.402)">
            <path id="Trazado_4" data-name="Trazado 4" class="cls-6" d="M-92.688,351.156c13.985,0,14-17.347,14-17.347,3.349-28.8,8.1-31.921,8.1-31.921,5.2-6.592,5.9-19.43,5.9-19.43V249.845c-.347-15.614-28-16.655-28-16.655s-27.651,1.042-28,16.655v32.613s.693,12.838,5.9,19.43c0,0,4.752,3.123,8.1,31.921,0,0,.014,17.347,14,17.347" transform="translate(120.685 -233.19)"/>
          </g>
        </g>
      </g>
      <g id="Grupo_17" data-name="Grupo 17" transform="translate(-82.229 243.597)">
        <circle id="Elipse_5" data-name="Elipse 5" class="cls-7" cx="27.787" cy="27.787" r="27.787" transform="translate(5.275)"/>
        <path id="Trazado_5" data-name="Trazado 5" class="cls-7" d="M-123.041,397.73c16.514,0,16.53-20.486,16.53-20.486,3.956-34.006,9.566-37.693,9.566-37.693,6.146-7.785,6.964-22.944,6.964-22.944V278.094c-.409-18.437-33.06-19.666-33.06-19.666s-32.653,1.229-33.062,19.666v38.513s.82,15.16,6.966,22.944c0,0,5.61,3.688,9.564,37.693,0,0,.018,20.486,16.532,20.486" transform="translate(156.103 -197.727)"/>
      </g>
      <g id="Grupo_21" data-name="Grupo 21" transform="translate(-179.935 182.575)">
        <g id="Grupo_20" data-name="Grupo 20">
          <g id="Grupo_18" data-name="Grupo 18" transform="translate(3.787)">
            <circle id="Elipse_6" data-name="Elipse 6" class="cls-5" cx="19.948" cy="19.948" r="19.948"/>
          </g>
          <g id="Grupo_19" data-name="Grupo 19" transform="translate(0 43.576)">
            <path id="Trazado_6" data-name="Trazado 6" class="cls-5" d="M-193.255,309.737c11.856,0,11.867-14.707,11.867-14.707,2.84-24.413,6.868-27.06,6.868-27.06,4.411-5.589,5-16.472,5-16.472V223.85c-.294-13.237-23.735-14.12-23.735-14.12s-23.442.883-23.735,14.12V251.5s.589,10.883,5,16.472c0,0,4.028,2.648,6.868,27.06,0,0,.011,14.707,11.867,14.707" transform="translate(216.99 -209.73)"/>
          </g>
        </g>
      </g>
      <g id="Grupo_25" data-name="Grupo 25" transform="translate(-278.266 182.575)">
        <g id="Grupo_24" data-name="Grupo 24">
          <g id="Grupo_22" data-name="Grupo 22" transform="translate(3.786)">
            <circle id="Elipse_7" data-name="Elipse 7" class="cls-5" cx="19.948" cy="19.948" r="19.948"/>
          </g>
          <g id="Grupo_23" data-name="Grupo 23" transform="translate(0 43.576)">
            <path id="Trazado_7" data-name="Trazado 7" class="cls-5" d="M-254.532,309.737c11.856,0,11.868-14.707,11.868-14.707,2.839-24.413,6.867-27.06,6.867-27.06,4.413-5.589,5-16.472,5-16.472V223.85c-.294-13.237-23.735-14.12-23.735-14.12s-23.44.883-23.734,14.12V251.5s.587,10.883,5,16.472c0,0,4.028,2.648,6.867,27.06,0,0,.011,14.707,11.867,14.707" transform="translate(278.266 -209.73)"/>
          </g>
        </g>
      </g>
      <g id="Grupo_29" data-name="Grupo 29" transform="translate(-238.581 212.395)">
        <g id="Grupo_28" data-name="Grupo 28" transform="translate(0 0)">
          <g id="Grupo_26" data-name="Grupo 26" transform="translate(4.467)">
            <circle id="Elipse_8" data-name="Elipse 8" class="cls-6" cx="23.531" cy="23.531" r="23.531"/>
          </g>
          <g id="Grupo_27" data-name="Grupo 27" transform="translate(0 51.402)">
            <path id="Trazado_8" data-name="Trazado 8" class="cls-6" d="M-225.539,351.156c13.985,0,14-17.347,14-17.347,3.349-28.8,8.1-31.921,8.1-31.921,5.2-6.592,5.9-19.43,5.9-19.43V249.845c-.347-15.614-28-16.655-28-16.655s-27.651,1.042-28,16.655v32.613s.695,12.838,5.9,19.43c0,0,4.752,3.123,8.1,31.921,0,0,.014,17.347,14,17.347" transform="translate(253.536 -233.19)"/>
          </g>
        </g>
      </g>
      <circle id="Elipse_9" data-name="Elipse 9" class="cls-7" cx="27.787" cy="27.787" r="27.787" transform="translate(-193.313 243.597)"/>
      <path id="Trazado_9" data-name="Trazado 9" class="cls-7" d="M-195.552,397.73c16.514,0,16.53-20.486,16.53-20.486,3.956-34.006,9.566-37.693,9.566-37.693,6.146-7.785,6.966-22.944,6.966-22.944V278.094c-.409-18.437-33.062-19.666-33.062-19.666s-32.651,1.229-33.062,19.666v38.513s.82,15.16,6.966,22.944c0,0,5.61,3.688,9.566,37.693,0,0,.016,20.486,16.53,20.486" transform="translate(30.025 45.87)"/>
      <circle id="Elipse_10" data-name="Elipse 10" class="cls-8" cx="27.787" cy="27.787" r="27.787" transform="translate(-137.803 274.325)"/>
      <path id="Trazado_10" data-name="Trazado 10" class="cls-8" d="M-160.961,416.879c16.514,0,16.532-20.486,16.532-20.486,3.954-34.005,9.566-37.693,9.566-37.693,6.144-7.785,6.964-22.944,6.964-22.944V297.243c-.409-18.438-33.062-19.666-33.062-19.666s-32.651,1.228-33.06,19.666v38.513s.818,15.16,6.964,22.944c0,0,5.61,3.688,9.566,37.693,0,0,.016,20.486,16.53,20.486" transform="translate(50.944 57.449)"/>
    </g>
  </g>
</svg>
